<svg width="72" height="72" viewBox="0 0 72 72" fill="none" xmlns="http://www.w3.org/2000/svg">
<circle cx="36" cy="36" r="36" fill="#E6F6F1"/>
<path d="M35.7451 54.4902C25.4081 54.4902 17 46.0822 17 35.7451C17 25.4081 25.4081 17 35.7451 17C46.0822 17 54.4902 25.4081 54.4902 35.7451C54.4902 46.0771 46.0822 54.4902 35.7451 54.4902ZM35.7451 18.0128C25.9679 18.0128 18.0179 25.9679 18.0179 35.74C18.0179 45.5172 25.973 53.4672 35.7451 53.4672C45.5223 53.4672 53.4723 45.5121 53.4723 35.74C53.4723 25.9679 45.5223 18.0128 35.7451 18.0128Z" fill="#25B380"/>
<path d="M29.9635 43.8682C29.8362 43.8682 29.7141 43.8224 29.6174 43.7308L25.4388 39.8168C25.2352 39.6234 25.225 39.3028 25.4133 39.0992C25.6067 38.8956 25.9274 38.8854 26.131 39.0737L29.9533 42.6518L44.8303 27.8715C45.0288 27.673 45.3494 27.673 45.5479 27.8715C45.7464 28.07 45.7464 28.3957 45.5479 28.5891L30.3248 43.7155C30.2231 43.8224 30.0958 43.8682 29.9635 43.8682Z" fill="#25B380"/>
</svg>
