<svg width="72" height="72" viewBox="0 0 72 72" fill="none" xmlns="http://www.w3.org/2000/svg">
<circle cx="36" cy="36" r="36" fill="#FDEBEE"/>
<path d="M35.7451 54.4902C25.4081 54.4902 17 46.0822 17 35.7451C17 25.4081 25.4081 17 35.7451 17C46.0822 17 54.4902 25.4081 54.4902 35.7451C54.4902 46.0771 46.0822 54.4902 35.7451 54.4902ZM35.7451 18.0128C25.9679 18.0128 18.0179 25.9679 18.0179 35.74C18.0179 45.5172 25.973 53.4672 35.7451 53.4672C45.5223 53.4672 53.4723 45.5121 53.4723 35.74C53.4723 25.9679 45.5223 18.0128 35.7451 18.0128Z" fill="#C80000"/>
<path d="M27.6132 46C27.4541 46 27.3012 45.9388 27.1789 45.8226C26.9404 45.5841 26.9404 45.1987 27.1789 44.9602L44.9587 27.1789C45.1973 26.9404 45.5826 26.9404 45.8211 27.1789C46.0596 27.4175 46.0596 27.8028 45.8211 28.0414L28.0413 45.8226C27.9251 45.9388 27.7722 46 27.6132 46Z" fill="#C80000"/>
<path d="M45.393 46C45.2339 46 45.0811 45.9388 44.9587 45.8226L27.1789 28.0414C26.9404 27.8028 26.9404 27.4175 27.1789 27.1789C27.4174 26.9404 27.8027 26.9404 28.0413 27.1789L45.8211 44.9602C46.0596 45.1987 46.0596 45.5841 45.8211 45.8226C45.7049 45.9388 45.552 46 45.393 46Z" fill="#C80000"/>
</svg>
