<svg width="72" height="72" viewBox="0 0 72 72" fill="none" xmlns="http://www.w3.org/2000/svg">
<path d="M72 36C72 55.8823 55.8823 72 36 72C16.1177 72 0 55.8823 0 36C0 16.1177 16.1177 0 36 0C55.8823 0 72 16.1177 72 36Z" fill="#EFEFEF"/>
<path d="M36.3588 30.2498C35.1874 30.2498 34.2339 29.2963 34.2339 28.1249C34.2339 26.9535 35.1874 26 36.3588 26C37.5302 26 38.4891 26.9535 38.4891 28.1249C38.4891 29.2963 37.5357 30.2498 36.3588 30.2498ZM36.3588 27.0843C35.7867 27.0843 35.3236 27.5474 35.3236 28.1195C35.3236 28.6915 35.7867 29.1547 36.3588 29.1547C36.9309 29.1547 37.3994 28.6915 37.3994 28.1195C37.3994 27.5474 36.9309 27.0843 36.3588 27.0843Z" fill="#626262"/>
<path d="M36.3587 46.35C36.0591 46.35 35.8139 46.1048 35.8139 45.8052V33.9057H33.5092C33.2095 33.9057 32.9644 33.6606 32.9644 33.3609C32.9644 33.0612 33.2095 32.816 33.5092 32.816H36.3587C36.6584 32.816 36.9036 33.0612 36.9036 33.3609V45.8052C36.9036 46.1048 36.6639 46.35 36.3587 46.35Z" fill="#626262"/>
<path d="M40.1727 46.35H32.5448C32.2452 46.35 32 46.1048 32 45.8051C32 45.5055 32.2452 45.2603 32.5448 45.2603H40.1727C40.4724 45.2603 40.7175 45.5055 40.7175 45.8051C40.7175 46.1048 40.4778 46.35 40.1727 46.35Z" fill="#626262"/>
<path d="M35.7451 54.4902C25.4081 54.4902 17 46.0822 17 35.7451C17 25.4081 25.4081 17 35.7451 17C46.0822 17 54.4902 25.4081 54.4902 35.7451C54.4902 46.0771 46.0822 54.4902 35.7451 54.4902ZM35.7451 18.0128C25.9679 18.0128 18.0179 25.9679 18.0179 35.74C18.0179 45.5172 25.973 53.4672 35.7451 53.4672C45.5223 53.4672 53.4723 45.5121 53.4723 35.74C53.4723 25.9679 45.5223 18.0128 35.7451 18.0128Z" fill="#626262"/>
</svg>
