<svg width="1117" height="1080" viewBox="0 0 1117 1080" fill="none" xmlns="http://www.w3.org/2000/svg">
<path d="M547.902 344.933C544.259 327.407 537.318 311.104 527.817 296.622L545.112 275.73L508.124 238.742L487.231 256.037C472.75 246.536 456.446 239.595 438.921 235.951L436.384 209.017H384.084L381.547 235.951C364.022 239.595 347.718 246.536 333.237 256.037L312.344 238.742L275.356 275.73L292.651 296.622C283.15 311.104 276.209 327.384 272.566 344.933L245.632 347.47V399.77L272.566 402.306C276.209 419.832 283.15 436.135 292.651 450.617L275.356 471.509L312.344 508.497L333.237 491.202C347.718 500.703 363.999 507.644 381.547 511.288L384.084 538.222H436.384L438.921 511.288C456.446 507.644 472.75 500.703 487.231 491.202L508.124 508.497L545.112 471.486L527.817 450.594C537.318 436.112 544.259 419.809 547.902 402.283L574.836 399.747V347.446L547.902 344.933ZM481.051 373.596C481.051 412.683 449.367 444.391 410.257 444.391C371.147 444.391 339.463 412.683 339.463 373.596C339.463 334.487 371.147 302.802 410.257 302.802C449.367 302.802 481.051 334.51 481.051 373.596Z" fill="#E0E0E0"/>
<path d="M697.884 595.895L699.706 615.242H737.271L739.093 595.895C751.683 593.289 763.398 588.285 773.798 581.459L788.81 593.889L815.375 567.324L802.946 552.311C809.772 541.911 814.753 530.197 817.381 517.606L836.729 515.784V478.22L817.381 476.398C814.776 463.807 809.772 452.093 802.946 441.693L815.375 426.681L788.81 400.115L773.798 412.545C763.398 405.719 751.683 400.738 739.093 398.109L737.271 378.762H699.706L697.884 398.109C685.294 400.715 673.579 405.719 663.179 412.545L648.167 400.115L621.602 426.681L634.031 441.693C627.206 452.093 622.225 463.807 619.596 476.398L600.248 478.22V515.784L619.596 517.606C622.202 530.197 627.206 541.911 634.031 552.311L621.602 567.324L648.167 593.889L663.179 581.459C673.579 588.285 685.294 593.289 697.884 595.895ZM718.5 547.861C690.413 547.861 667.63 525.078 667.63 496.991C667.63 468.903 690.413 446.12 718.5 446.12C746.587 446.12 769.37 468.903 769.37 496.991C769.347 525.101 746.587 547.861 718.5 547.861Z" fill="#E0E0E0"/>
<path d="M218.836 780.998L219.758 790.867H238.921L239.844 780.998C246.277 779.66 252.25 777.123 257.554 773.641L265.21 779.983L278.769 766.424L272.428 758.768C275.91 753.464 278.446 747.491 279.784 741.058L289.653 740.135V720.972L279.784 720.05C278.446 713.616 275.91 707.644 272.428 702.34L278.769 694.684L265.21 681.125L257.554 687.466C252.25 683.984 246.277 681.448 239.844 680.11L238.921 670.24H219.758L218.836 680.11C212.402 681.448 206.43 683.984 201.126 687.466L193.47 681.125L179.911 694.684L186.252 702.34C182.77 707.644 180.234 713.616 178.896 720.05L169.026 720.972V740.135L178.896 741.058C180.234 747.468 182.77 753.464 186.252 758.768L179.911 766.424L193.47 779.983L201.126 773.641C206.453 777.123 212.425 779.683 218.836 780.998ZM229.351 756.508C215.031 756.508 203.409 744.886 203.409 730.565C203.409 716.245 215.031 704.623 229.351 704.623C243.672 704.623 255.294 716.245 255.294 730.565C255.294 744.909 243.672 756.508 229.351 756.508Z" fill="#F0F0F0"/>
<path d="M907.73 733.125L908.491 741.242H924.265L925.025 733.125C930.306 732.018 935.218 729.943 939.599 727.06L945.895 732.272L957.056 721.111L951.844 714.815C954.704 710.457 956.802 705.545 957.909 700.241L966.026 699.48V683.707L957.909 682.946C956.802 677.666 954.727 672.754 951.844 668.372L957.056 662.077L945.895 650.916L939.599 656.128C935.241 653.268 930.329 651.17 925.025 650.063L924.265 641.946H908.491L907.73 650.063C902.45 651.17 897.538 653.245 893.157 656.128L886.861 650.916L875.7 662.077L880.912 668.372C878.052 672.731 875.954 677.643 874.847 682.946L866.73 683.707V699.48L874.847 700.241C875.954 705.522 878.029 710.434 880.912 714.815L875.7 721.111L886.861 732.272L893.157 727.06C897.538 729.943 902.45 732.018 907.73 733.125ZM916.378 712.971C904.594 712.971 895.024 703.401 895.024 691.617C895.024 679.833 904.594 670.263 916.378 670.263C928.162 670.263 937.732 679.81 937.732 691.617C937.732 703.401 928.162 712.971 916.378 712.971Z" fill="#F0F0F0"/>
<path d="M498.369 859.009H543.106L545.273 835.973C560.262 832.859 574.214 826.91 586.597 818.793L604.468 833.597L636.107 801.959L621.302 784.088C629.419 771.704 635.369 757.753 638.482 742.764L661.519 740.596V695.86L638.482 693.692C635.369 678.703 629.419 664.752 621.302 652.369L636.107 634.497L604.468 602.859L586.597 617.64C574.214 609.523 560.285 603.574 545.273 600.461L543.106 577.424H498.369L496.202 600.461C481.213 603.574 467.261 609.523 454.878 617.64L437.007 602.859L405.368 634.52L420.173 652.392C412.056 664.775 406.106 678.726 402.993 693.715L379.956 695.883V740.619L402.993 742.787C406.106 757.776 412.056 771.727 420.173 784.111L405.368 801.982L437.007 833.62L454.878 818.816C467.261 826.933 481.213 832.882 496.202 835.996L498.369 859.009ZM520.738 778.784C487.301 778.784 460.182 751.665 460.182 718.228C460.182 684.791 487.301 657.673 520.738 657.673C554.175 657.673 581.293 684.791 581.293 718.228C581.293 751.688 554.175 778.784 520.738 778.784Z" fill="#E0E0E0"/>
<path d="M748.409 777.17L746.034 772.65C738.332 757.96 720.091 752.265 705.402 759.99L694.633 765.64C679.921 773.365 674.248 791.582 681.973 806.294L684.348 810.814L676.831 814.757L703.926 866.389L783.045 824.858L755.95 773.226L748.409 777.17ZM731.921 816.648L736.648 825.665L730.906 828.686L726.179 819.669C724.035 819.531 721.982 818.424 720.898 816.372C719.261 813.258 720.46 809.384 723.573 807.747C726.687 806.11 730.561 807.309 732.198 810.422C733.305 812.497 733.051 814.803 731.921 816.648ZM736.533 783.396L696.201 804.565L693.826 800.045C689.56 791.905 692.696 781.805 700.859 777.515L711.628 771.866C719.768 767.6 729.869 770.736 734.158 778.876L736.533 783.396Z" fill="#F0F0F0"/>
<path d="M195.315 502.963L196.975 498.144C202.417 482.463 194.093 465.283 178.412 459.841L166.928 455.852C151.247 450.409 134.068 458.734 128.625 474.415L126.942 479.234L118.917 476.444L99.8004 531.534L184.223 560.844L203.34 505.753L195.315 502.963ZM155.237 517.975L151.893 527.591L145.782 525.47L149.126 515.854C147.742 514.193 147.166 511.933 147.927 509.743C149.08 506.422 152.723 504.646 156.044 505.799C159.387 506.952 161.14 510.596 159.987 513.917C159.203 516.107 157.358 517.514 155.237 517.975ZM182.655 498.582L139.625 483.639L141.308 478.819C144.329 470.126 153.853 465.514 162.547 468.535L174.054 472.524C182.747 475.545 187.359 485.069 184.338 493.762L182.655 498.582Z" fill="#F0F0F0"/>
<path d="M950.807 476.029L945.872 474.461C956.71 472.501 966.165 464.891 969.739 453.661C974.881 437.496 965.934 420.224 949.769 415.104C933.604 409.962 916.332 418.909 911.213 435.074C907.638 446.305 910.982 457.973 918.707 465.836L913.772 464.268C898.76 459.495 882.733 467.797 877.96 482.809L873.025 498.328L964.412 527.384L969.347 511.864C974.12 496.829 965.819 480.802 950.807 476.029Z" fill="#F0F0F0"/>
<path d="M619.342 197.533L616.275 198.825C620.772 193.336 622.225 185.658 619.296 178.67C615.076 168.593 603.477 163.866 593.4 168.109C583.322 172.329 578.595 183.928 582.838 194.005C585.767 200.992 592.293 205.328 599.349 205.95L596.282 207.242C586.943 211.162 582.538 221.931 586.459 231.293L590.517 240.955L647.429 217.042L643.371 207.38C639.45 197.995 628.681 193.613 619.342 197.533Z" fill="#F0F0F0"/>
<path d="M207.283 262.378L204.009 261.709C210.834 259.749 216.392 254.261 217.937 246.813C220.174 236.113 213.302 225.644 202.625 223.43C191.925 221.193 181.456 228.065 179.242 238.742C177.697 246.167 180.603 253.431 186.068 257.951L182.816 257.282C172.878 255.206 163.169 261.594 161.094 271.51L158.949 281.772L219.39 294.362L221.534 284.101C223.586 274.162 217.222 264.454 207.283 262.378Z" fill="#F0F0F0"/>
<path d="M540.5 966.953C787.432 966.953 987.61 955.266 987.61 940.849C987.61 926.433 787.432 914.746 540.5 914.746C293.568 914.746 93.3896 926.433 93.3896 940.849C93.3896 955.266 293.568 966.953 540.5 966.953Z" fill="#F5F5F5"/>
<path d="M883.079 848.494C883.079 848.494 868.828 850.385 862.763 848.494C856.676 846.603 858.959 818.977 852.732 818.401C838.435 817.086 840.857 853.775 846.944 861.5C853.032 869.225 884.371 865.951 884.371 865.951L883.079 848.494Z" fill="#12539D"/>
<path opacity="0.2" d="M883.079 848.494C883.079 848.494 868.828 850.385 862.763 848.494C856.676 846.603 858.959 818.977 852.732 818.401C838.435 817.086 840.857 853.775 846.944 861.5C853.032 869.225 884.371 865.951 884.371 865.951L883.079 848.494Z" fill="white"/>
<path d="M884.255 913.546C884.255 913.546 863.155 726.207 888.337 724.039C913.519 721.872 919.606 787.939 909.875 911.148L884.255 913.546Z" fill="#12539D"/>
<path opacity="0.3" d="M884.255 913.546C884.255 913.546 863.155 726.207 888.337 724.039C913.519 721.872 919.606 787.939 909.875 911.148L884.255 913.546Z" fill="white"/>
<path d="M854.669 890.878H937.524L930.606 943.87H861.587L854.669 890.878Z" fill="#263238"/>
<path d="M909.276 785.471C909.276 785.471 932.22 786.693 932.912 785.471C933.604 784.249 933.604 757.73 943.335 759.298C953.066 760.866 948.8 792.781 943.335 796.494C937.87 800.207 909.276 802.213 909.276 802.213C909.276 802.213 905.448 790.452 909.276 785.471Z" fill="#12539D"/>
<path opacity="0.4" d="M909.276 785.471C909.276 785.471 932.22 786.693 932.912 785.471C933.604 784.249 933.604 757.73 943.335 759.298C953.066 760.866 948.8 792.781 943.335 796.494C937.87 800.207 909.276 802.213 909.276 802.213C909.276 802.213 905.448 790.452 909.276 785.471Z" fill="white"/>
<path d="M894.725 896.459C891.565 867.911 888.914 839.316 887.023 810.63C886.054 796.286 885.385 781.943 885.109 767.554C884.993 760.359 884.993 753.164 885.362 745.969C885.547 742.372 885.824 738.752 886.377 735.154C886.677 733.356 887 731.557 887.599 729.758C887.945 728.859 888.245 727.959 888.914 727.106C889.052 726.876 889.236 726.668 889.49 726.484C889.698 726.276 889.928 726.092 890.274 725.953C890.436 725.884 890.597 725.815 890.758 725.769C890.943 725.746 891.15 725.746 891.358 725.769C891.796 725.769 892.05 725.976 892.373 726.138C893.41 726.922 893.779 727.844 894.194 728.72C894.563 729.597 894.863 730.496 895.117 731.372C895.624 733.148 896.016 734.924 896.339 736.699C897.008 740.274 897.469 743.848 897.884 747.422C898.691 754.571 899.244 761.742 899.729 768.914C900.628 783.257 901.251 797.624 901.573 811.967C901.942 826.333 902.15 840.7 902.242 855.043C902.288 869.41 902.242 883.776 902.081 898.119C901.942 883.753 901.689 869.41 901.343 855.043C901.066 840.7 900.697 826.333 900.167 811.99C899.613 797.647 899.06 783.303 898.068 768.983C897.584 761.835 896.985 754.686 896.154 747.584C895.739 744.032 895.255 740.481 894.586 736.999C894.263 735.246 893.871 733.517 893.387 731.834C893.134 731.003 892.857 730.173 892.534 729.412C892.211 728.674 891.75 727.913 891.358 727.614C891.266 727.614 891.197 727.475 891.15 727.521C891.127 727.521 891.104 727.521 891.081 727.498C891.035 727.521 890.989 727.544 890.966 727.567C890.874 727.567 890.758 727.66 890.643 727.775C890.528 727.867 890.412 727.983 890.32 728.144C889.859 728.697 889.559 729.505 889.259 730.289C888.706 731.903 888.383 733.632 888.083 735.385C887.53 738.867 887.253 742.441 887.046 746.015C886.654 753.164 886.631 760.336 886.723 767.484C886.907 781.828 887.622 796.171 888.36 810.491C889.144 824.811 890.136 839.155 891.22 853.452C892.303 867.841 893.433 882.139 894.725 896.459Z" fill="#407BFF"/>
<path d="M912.158 791.767L925.487 790.752C927.7 790.544 929.914 790.383 932.105 790.083C933.189 789.945 934.296 789.806 935.31 789.553C935.795 789.437 936.325 789.276 936.648 789.115C936.648 789.092 936.809 788.999 936.717 789.069C936.671 789.115 936.694 789.115 936.648 789.207C936.602 789.276 936.625 789.484 936.648 789.484C936.602 789.138 936.532 788.7 936.532 788.423C936.786 783.742 937.709 779.452 938.654 775.048C939.669 770.69 940.637 766.308 942.251 762.134C941.767 764.325 941.421 766.516 941.075 768.73L939.991 775.325L939 781.92C938.7 784.088 938.354 786.347 938.308 788.423C938.285 788.7 938.354 788.815 938.331 789.022C938.354 789.161 938.377 789.484 938.331 789.714C938.285 789.945 938.17 790.06 938.054 790.222C937.801 790.544 937.662 790.544 937.478 790.706C936.809 791.052 936.233 791.167 935.656 791.305C934.503 791.559 933.373 791.697 932.266 791.813C930.006 792.02 927.77 792.159 925.533 792.159C921.105 792.205 916.632 792.112 912.158 791.767Z" fill="#407BFF"/>
<path d="M912.158 797.877C917.162 797.024 922.189 796.356 927.216 795.618L934.734 794.557C937.155 794.165 939.876 793.819 941.928 793.127C942.021 793.104 942.413 792.62 942.597 792.112C942.828 791.605 943.012 791.006 943.174 790.429C943.497 789.253 943.727 788.031 943.935 786.786C944.373 784.318 944.603 781.805 944.926 779.291C945.48 774.264 945.895 769.214 946.379 764.164C946.633 769.237 946.587 774.333 946.31 779.406C946.195 781.943 945.918 784.48 945.572 787.039C945.387 788.308 945.18 789.576 944.857 790.867C944.696 791.513 944.511 792.136 944.234 792.804C943.935 793.427 943.727 794.165 942.689 794.787C941.237 795.318 940.061 795.433 938.769 795.664L934.987 796.194C932.451 796.494 929.937 796.84 927.401 797.001C922.327 797.439 917.254 797.785 912.158 797.877Z" fill="#407BFF"/>
<path d="M875.977 853.613C871.734 853.844 867.514 853.752 863.271 853.36C861.149 853.152 859.028 852.899 856.883 852.207C856.607 852.091 856.376 852.045 856.053 851.884C855.684 851.699 855.407 851.446 855.2 851.192C854.739 850.685 854.485 850.154 854.231 849.624C853.77 848.563 853.493 847.503 853.24 846.442C852.34 842.199 852.064 837.956 851.994 833.713C851.925 829.47 852.018 825.227 852.433 821.007C852.755 825.227 853.009 829.447 853.378 833.643C853.77 837.817 854.116 842.037 854.992 846.05C855.477 847.941 855.938 850.316 857.483 850.616C859.328 851.307 861.426 851.607 863.478 851.999C867.583 852.668 871.78 853.106 875.977 853.613Z" fill="#407BFF"/>
<path d="M848.167 824.327L849.665 839.063C850.196 843.951 850.611 848.886 851.533 853.66C851.741 854.859 851.994 856.035 852.34 857.142C852.525 857.649 852.755 858.249 852.963 858.456L853.539 858.871C853.77 858.986 854.047 859.102 854.3 859.217C856.422 860.093 858.912 860.416 861.311 860.854C866.153 861.592 871.065 862.053 876 862.538C871.042 862.791 866.107 862.699 861.149 862.215C858.659 861.961 856.191 861.638 853.701 860.716C853.378 860.578 853.078 860.462 852.755 860.301C852.433 860.093 852.11 859.886 851.81 859.632C851.164 858.94 851.003 858.318 850.726 857.695C850.288 856.45 850.011 855.228 849.758 853.982C848.95 849.025 848.512 844.113 848.282 839.155C848.074 834.22 847.959 829.285 848.167 824.327Z" fill="#407BFF"/>
<path d="M751.291 572.535H701.297V419.117C701.297 360.475 653.586 312.764 594.945 312.764C536.303 312.764 488.592 360.475 488.592 419.117V572.535H438.598V419.117C438.598 332.919 508.723 262.77 594.922 262.77C681.12 262.77 751.245 332.896 751.245 419.117V572.535H751.291Z" fill="#263238"/>
<g opacity="0.3">
<path d="M751.291 572.535H701.297V419.117C701.297 360.475 653.586 312.764 594.945 312.764C536.303 312.764 488.592 360.475 488.592 419.117V572.535H438.598V419.117C438.598 332.919 508.723 262.77 594.922 262.77C681.12 262.77 751.245 332.896 751.245 419.117V572.535H751.291Z" fill="white"/>
</g>
<path d="M808.573 533.495V784.457C808.573 800.552 795.544 813.581 779.448 813.581H410.326C394.369 813.581 381.34 800.552 381.34 784.457V533.495C381.34 517.399 394.369 504.347 410.326 504.347H779.425C784.406 504.347 789.156 505.569 793.215 507.875C802.346 512.717 808.573 522.38 808.573 533.495Z" fill="#12539D"/>
<path opacity="0.2" d="M793.238 507.875V753.764C793.238 769.86 780.209 782.819 764.113 782.819H394.991C390.08 782.819 385.398 781.597 381.34 779.36V533.495C381.34 517.399 394.369 504.347 410.326 504.347H779.425C784.406 504.347 789.179 505.569 793.238 507.875Z" fill="white"/>
<path opacity="0.5" d="M649.92 627.464C649.92 596.518 625.315 571.451 594.945 571.451C564.575 571.451 539.97 596.541 539.97 627.464C539.97 651.516 554.936 671.855 575.805 679.787L572.945 746.477H616.921L610.349 680.963C633.178 674.138 649.92 652.899 649.92 627.464Z" fill="black"/>
<path d="M257.715 302.871L265.371 327.453L273.004 302.871H257.715Z" fill="#F57D20"/>
<path d="M327.956 310.343H202.763C191.81 310.343 182.955 301.465 182.955 290.534V263.877C182.955 252.947 191.833 244.068 202.763 244.068H327.956C338.91 244.068 347.765 252.947 347.765 263.877V290.534C347.765 301.488 338.91 310.343 327.956 310.343Z" fill="#F57D20"/>
<path d="M221.696 277.183L226.031 279.627L224.901 281.633L220.496 279.051L220.543 284.008H218.352L218.398 279.051L213.993 281.633L212.864 279.627L217.245 277.183L212.864 274.784L213.993 272.732L218.398 275.315L218.352 270.403H220.543L220.496 275.315L224.901 272.732L226.031 274.784L221.696 277.183Z" fill="white"/>
<path d="M237.007 277.183L241.343 279.627L240.213 281.633L235.808 279.051L235.854 284.008H233.664L233.71 279.051L229.305 281.633L228.175 279.627L232.557 277.183L228.175 274.784L229.305 272.732L233.71 275.315L233.664 270.403H235.854L235.808 275.315L240.213 272.732L241.343 274.784L237.007 277.183Z" fill="white"/>
<path d="M252.319 277.183L256.654 279.627L255.525 281.633L251.12 279.051L251.166 284.008H248.975L249.022 279.051L244.617 281.633L243.487 279.627L247.869 277.183L243.487 274.784L244.617 272.732L249.022 275.315L248.975 270.403H251.166L251.12 275.315L255.525 272.732L256.654 274.784L252.319 277.183Z" fill="white"/>
<path d="M267.631 277.183L271.966 279.627L270.836 281.633L266.432 279.051L266.478 284.008H264.287L264.333 279.051L259.929 281.633L258.799 279.627L263.18 277.183L258.799 274.784L259.929 272.732L264.333 275.315L264.287 270.403H266.478L266.432 275.315L270.836 272.732L271.966 274.784L267.631 277.183Z" fill="white"/>
<path d="M282.943 277.183L287.278 279.627L286.148 281.633L281.744 279.051L281.79 284.008H279.599L279.645 279.051L275.241 281.633L274.111 279.627L278.492 277.183L274.111 274.784L275.241 272.732L279.645 275.315L279.599 270.403H281.79L281.744 275.315L286.148 272.732L287.278 274.784L282.943 277.183Z" fill="white"/>
<path d="M298.232 277.183L302.567 279.627L301.437 281.633L297.033 279.051L297.079 284.008H294.888L294.934 279.051L290.53 281.633L289.4 279.627L293.781 277.183L289.4 274.784L290.53 272.732L294.934 275.315L294.888 270.403H297.079L297.033 275.315L301.437 272.732L302.567 274.784L298.232 277.183Z" fill="white"/>
<path d="M313.543 277.183L317.879 279.627L316.749 281.633L312.344 279.051L312.39 284.008H310.2L310.246 279.051L305.841 281.633L304.711 279.627L309.093 277.183L304.711 274.784L305.841 272.732L310.246 275.315L310.2 270.403H312.39L312.344 275.315L316.749 272.732L317.879 274.784L313.543 277.183Z" fill="white"/>
<path d="M365.405 474.645L379.472 465.537L363.63 455.805C363.63 455.805 351.569 464.684 356.412 470.702L365.405 474.645Z" fill="#B55B52"/>
<path d="M386.69 450.594L370.225 446.835L363.63 455.805L379.472 465.537L386.69 450.594Z" fill="#B55B52"/>
<path d="M307.479 445.083C311.906 452.185 316.657 459.587 321.476 466.505C323.874 469.987 326.365 473.354 328.855 476.513C331.323 479.649 334.044 482.647 336.235 484.492C336.765 484.93 337.226 485.276 337.457 485.438C337.687 485.622 337.572 485.484 336.673 485.484C336.211 485.599 336.465 485.83 337.388 485.461C339.255 484.723 342.115 482.14 344.559 479.28C347.073 476.375 349.494 473.008 351.777 469.549C352.907 467.797 354.06 466.044 355.121 464.268L356.55 461.801C356.573 461.755 356.62 461.686 356.62 461.732C356.643 461.686 356.573 461.962 356.573 462.078C356.55 462.216 356.504 462.631 356.504 462.908L356.527 463.369C356.735 463.577 355.997 462.954 357.427 466.136C359.11 469.249 363.745 469.042 363.722 468.742C364.275 468.627 364.875 468.396 365.405 468.073C365.959 467.75 366.42 467.335 366.812 466.92L367.043 466.644C367.158 466.482 367.25 466.344 367.342 466.182L367.366 466.113C367.389 466.044 367.389 466.044 367.342 466.067C367.319 466.09 367.25 466.159 367.181 466.229C366.927 466.551 366.628 466.99 366.351 467.428L356.181 463.092C356.343 462.493 356.481 461.916 356.712 461.248C356.781 461.063 356.827 460.902 356.919 460.671C356.965 460.579 357.012 460.44 357.104 460.256L357.242 460.002C357.381 459.772 357.519 459.564 357.657 459.357C357.75 459.241 357.588 459.426 357.911 459.034C358.303 458.596 358.787 458.181 359.341 457.858C359.894 457.535 360.494 457.304 361.07 457.166C361.07 456.866 365.705 456.682 367.412 459.795C368.864 462.977 368.126 462.378 368.334 462.608L368.357 463.115C368.357 463.415 368.311 463.853 368.288 464.038L368.15 464.799L367.988 465.537C367.665 466.989 367.389 468.096 367.043 469.296C366.397 471.625 365.705 473.884 364.875 476.121C363.238 480.595 361.255 484.999 358.672 489.358C355.997 493.693 353.045 498.121 347.349 502.087C344.513 504.024 340.385 505.823 335.45 505.684C332.337 505.523 330.101 504.646 328.325 503.862C326.572 503.032 325.166 502.156 323.897 501.303C318.963 497.821 315.642 494.246 312.321 490.649C309.07 487.052 306.164 483.362 303.351 479.649C297.793 472.155 292.836 464.637 288.154 456.52L307.479 445.083Z" fill="#B55B52"/>
<path d="M300.492 434.959C309.646 438.026 328.44 480.503 328.44 480.503L296.664 495.607C296.664 495.607 290.184 462.216 291.383 451.516C292.559 440.793 300.492 434.959 300.492 434.959Z" fill="#12539D"/>
<path opacity="0.7" d="M300.492 434.959C309.646 438.026 328.44 480.503 328.44 480.503L296.664 495.607C296.664 495.607 290.184 462.216 291.383 451.516C292.559 440.793 300.492 434.959 300.492 434.959Z" fill="white"/>
<path d="M337.849 927.682L321.661 932.271L317.81 907.067L315.734 893.599L331.922 889.011L334.69 907.067L337.849 927.682Z" fill="#B55B52"/>
<path d="M244.779 928.997L228.083 931.21L227.922 907.066L227.806 892.077L244.525 889.887L244.64 907.066L244.779 928.997Z" fill="#B55B52"/>
<path opacity="0.2" d="M244.525 889.887L244.64 907.066H227.922L227.806 892.077L244.525 889.887Z" fill="black"/>
<path opacity="0.2" d="M334.69 907.067H317.81L315.734 893.599L331.922 889.011L334.69 907.067Z" fill="black"/>
<path d="M337.641 925.146L319.262 924.661C318.571 924.638 317.971 925.099 317.787 925.768L313.936 940.573C313.544 942.118 314.65 943.594 316.242 943.617C322.883 943.686 332.476 943.547 340.8 943.778C350.555 944.032 356.735 943.57 368.173 943.87C375.091 944.055 377.258 937.16 374.376 936.445C361.301 933.217 352.769 933.862 341.631 926.575C340.455 925.768 339.094 925.192 337.641 925.146Z" fill="#263238"/>
<path d="M338.979 927.198C338.956 927.037 339.048 926.875 339.209 926.806C339.993 926.437 346.865 923.186 348.871 924.385C349.263 924.615 349.471 924.984 349.494 925.468C349.517 926.253 349.24 926.898 348.687 927.382C346.773 928.95 341.977 928.166 339.279 927.567C339.255 927.567 339.232 927.567 339.232 927.544C339.094 927.475 338.979 927.336 338.979 927.198ZM340.616 927.013C344.306 927.728 347.096 927.636 348.157 926.76C348.526 926.437 348.71 926.045 348.687 925.491C348.687 925.284 348.618 925.146 348.456 925.053C348.41 925.03 348.364 925.007 348.318 924.984C347.05 924.523 343.337 925.814 340.616 927.013Z" fill="#12539D"/>
<path d="M339.117 927.452C339.002 927.359 338.956 927.221 338.956 927.083C338.979 926.898 339.601 922.401 341.792 920.695C342.461 920.188 343.222 919.98 344.029 920.072C345.113 920.211 345.412 920.764 345.482 921.225C345.712 923.116 341.561 926.645 339.509 927.498C339.417 927.544 339.302 927.544 339.209 927.498C339.186 927.498 339.163 927.475 339.117 927.452ZM343.937 920.879C343.337 920.81 342.807 920.949 342.299 921.341C340.847 922.448 340.155 925.146 339.901 926.437C342.023 925.261 344.859 922.471 344.721 921.341C344.721 921.272 344.698 921.087 344.352 920.972C344.236 920.926 344.121 920.903 343.937 920.879Z" fill="#12539D"/>
<path d="M244.11 925.146L225.731 924.661C225.039 924.638 224.44 925.099 224.255 925.768L220.404 940.573C220.012 942.118 221.119 943.594 222.71 943.617C229.351 943.686 238.944 943.547 247.269 943.778C257.023 944.032 263.204 943.57 274.641 943.87C281.559 944.055 283.727 937.16 280.844 936.445C267.769 933.217 259.237 933.862 248.099 926.575C246.9 925.768 245.563 925.192 244.11 925.146Z" fill="#263238"/>
<path d="M245.424 927.198C245.401 927.037 245.493 926.875 245.655 926.806C246.439 926.437 253.311 923.186 255.317 924.385C255.709 924.615 255.917 924.984 255.94 925.468C255.963 926.253 255.686 926.898 255.133 927.382C253.219 928.95 248.422 928.166 245.724 927.567C245.701 927.567 245.678 927.567 245.678 927.544C245.54 927.475 245.447 927.336 245.424 927.198ZM247.085 927.013C250.774 927.728 253.564 927.636 254.625 926.76C254.994 926.437 255.179 926.045 255.156 925.491C255.156 925.284 255.086 925.146 254.925 925.053C254.879 925.03 254.833 925.007 254.787 924.984C253.518 924.523 249.806 925.814 247.085 927.013Z" fill="#12539D"/>
<path d="M245.586 927.452C245.47 927.359 245.424 927.221 245.424 927.083C245.447 926.898 246.07 922.401 248.261 920.695C248.929 920.188 249.69 919.98 250.497 920.072C251.581 920.211 251.881 920.764 251.95 921.225C252.181 923.116 248.03 926.645 245.978 927.498C245.885 927.544 245.77 927.544 245.678 927.498C245.655 927.498 245.609 927.475 245.586 927.452ZM250.405 920.879C249.806 920.81 249.275 920.949 248.768 921.341C247.315 922.448 246.623 925.146 246.37 926.437C248.491 925.261 251.328 922.471 251.189 921.341C251.189 921.272 251.166 921.087 250.82 920.972C250.705 920.926 250.567 920.903 250.405 920.879Z" fill="#12539D"/>
<path d="M210.35 562.043C201.518 600.392 216.691 901.924 216.691 901.924H246.024L258.568 650.616L304.758 901.924L336.096 899.641C315.619 704.969 297.494 588.746 297.494 588.746L297.54 574.057L210.35 562.043Z" fill="#263238"/>
<path opacity="0.2" d="M336.073 899.641L304.712 901.924L268.369 704.092L258.545 650.616L246.001 901.901H216.668C216.668 901.901 201.472 600.345 210.327 562.02L297.494 574.034L297.448 588.723C297.471 588.746 315.573 704.969 336.073 899.641Z" fill="white"/>
<path d="M208.367 432.492C211.641 451.009 213.071 469.711 213.509 487.213C213.809 500.034 213.578 512.21 213.071 523.233C211.918 549.06 209.428 568.615 209.543 575.325C222.433 575.556 271.021 576.432 297.517 576.893C318.501 484.861 300.468 434.936 300.468 434.936C300.468 434.936 290.991 432.169 279.807 430.532C278.331 430.301 276.832 430.117 275.31 429.955C265.44 428.871 249.16 428.94 237.907 429.286C235.531 429.356 233.133 429.494 230.804 429.655C218.928 430.555 208.367 432.492 208.367 432.492Z" fill="#12539D"/>
<path d="M278.054 432.907C278.054 432.907 272.82 440.494 268.6 441.024C262.65 441.831 240.881 428.525 240.881 428.525C245.909 424.813 248.376 416.719 249.46 408.163C250.405 400.715 250.267 392.921 249.898 387.225L270.214 409.316C267.539 416.211 265.948 423.614 271.205 428.802C271.228 428.825 271.275 428.825 271.275 428.825C272.843 430.439 275.056 431.8 278.054 432.907Z" fill="#B55B52"/>
<path opacity="0.2" d="M271.228 428.825C262.65 424.144 253.98 416.234 249.483 408.163C250.428 400.715 250.29 392.921 249.921 387.225L270.237 409.316C267.562 416.234 265.971 423.637 271.228 428.825Z" fill="black"/>
<path d="M293.827 367.393C295.534 373.804 293.896 386.741 285.249 382.129C276.601 377.517 290.876 356.371 293.827 367.393Z" fill="#263238"/>
<path d="M247.915 373.965C246.231 390.177 244.433 399.585 251.189 409.086C261.359 423.383 282.459 419.117 288.962 403.713C294.819 389.831 296.571 365.664 281.859 356.809C267.4 348.092 249.575 357.754 247.915 373.965Z" fill="#B55B52"/>
<path d="M259.675 365.618L260.459 347.47C260.459 347.47 241.204 345.21 241.619 355.125C230.689 359.968 235.024 376.848 249.045 385.634C257.185 379.661 256.954 364.442 256.954 364.442C257.807 364.834 258.73 365.226 259.675 365.618Z" fill="#263238"/>
<path d="M239.498 386.303C240.097 390.638 242.657 394.281 245.586 396.403C249.99 399.585 254.095 396.08 254.487 390.961C254.833 386.349 252.965 379.131 247.776 377.978C242.657 376.871 238.829 381.345 239.498 386.303Z" fill="#B55B52"/>
<path d="M271.597 382.244C271.39 383.558 271.897 384.711 272.75 384.85C273.604 384.988 274.48 384.043 274.687 382.728C274.895 381.414 274.388 380.261 273.534 380.122C272.681 379.984 271.805 380.93 271.597 382.244Z" fill="#263238"/>
<path d="M286.402 384.55C286.194 385.864 286.702 387.017 287.555 387.156C288.408 387.294 289.284 386.349 289.492 385.034C289.699 383.72 289.192 382.567 288.339 382.428C287.509 382.29 286.633 383.259 286.402 384.55Z" fill="#263238"/>
<path d="M281.582 384.481C281.582 384.481 283.427 392.206 286.171 396.264C283.542 397.948 279.761 396.357 279.761 396.357L281.582 384.481Z" fill="#A02724"/>
<path d="M271.92 400.231C272.451 400.392 273.004 400.508 273.604 400.6C273.811 400.623 274.019 400.484 274.042 400.277C274.088 400.069 273.926 399.862 273.719 399.839C267.954 398.939 265.948 394.512 265.925 394.466C265.832 394.281 265.602 394.189 265.417 394.281C265.21 394.374 265.141 394.604 265.21 394.789C265.302 394.973 267.031 398.778 271.92 400.231Z" fill="#263238"/>
<path d="M267.816 376.756C268.069 376.825 268.369 376.779 268.577 376.571C271.113 374.173 273.903 374.773 273.926 374.773C274.342 374.865 274.757 374.611 274.872 374.196C274.964 373.781 274.71 373.366 274.295 373.274C274.157 373.228 270.629 372.49 267.493 375.464C267.17 375.764 267.17 376.248 267.47 376.571C267.585 376.663 267.7 376.733 267.816 376.756Z" fill="#263238"/>
<path d="M293.643 380.468C293.781 380.514 293.942 380.514 294.104 380.468C294.519 380.353 294.75 379.915 294.634 379.5C293.412 375.372 289.976 374.381 289.815 374.311C289.4 374.196 288.962 374.427 288.846 374.842C288.731 375.257 288.962 375.672 289.377 375.81C289.515 375.856 292.167 376.663 293.158 379.961C293.205 380.215 293.389 380.399 293.643 380.468Z" fill="#263238"/>
<path d="M241.642 355.125C241.642 355.125 231.681 345.233 265.486 346.132C299.316 347.031 304.919 365.987 289.423 370.368L288.708 367.278C288.708 367.278 280.752 371.936 271.367 368.154L273.811 366.632C273.834 366.655 250.751 369.008 241.642 355.125Z" fill="#263238"/>
<path d="M268.623 441.024C268.623 441.024 264.31 446.005 259.283 450.917C252.112 447.296 235.301 437.565 236.131 428.618C237.123 426.012 243.948 424.352 243.948 424.352C243.948 424.352 251.397 434.014 268.623 441.024Z" fill="#12539D"/>
<path d="M268.623 441.024C268.623 441.024 274.226 445.382 277.87 450.917C283.15 447.504 280.499 430.808 278.538 428.964C274.365 426.45 269.453 426.588 269.453 426.588C269.453 426.588 273.212 434.175 268.623 441.024Z" fill="#12539D"/>
<g opacity="0.5">
<path d="M268.623 441.024C268.623 441.024 264.31 446.005 259.283 450.917C252.112 447.296 235.301 437.565 236.131 428.618C237.123 426.012 243.948 424.352 243.948 424.352C243.948 424.352 251.397 434.014 268.623 441.024Z" fill="white"/>
<path d="M268.623 441.024C268.623 441.024 274.226 445.382 277.87 450.917C283.15 447.504 280.499 430.808 278.538 428.964C274.365 426.45 269.453 426.588 269.453 426.588C269.453 426.588 273.212 434.175 268.623 441.024Z" fill="white"/>
</g>
<path opacity="0.2" d="M268.369 704.092L258.545 650.616L260.436 622.322C260.436 622.322 273.903 671.393 268.369 704.092Z" fill="black"/>
<path d="M217.568 456.912L202.44 481.563C199.927 485.668 197.483 489.796 195.107 493.877C192.755 497.959 190.426 502.11 188.558 505.961C187.636 507.875 186.967 509.512 186.345 511.357C185.745 513.386 185.122 515.554 184.569 517.814C183.462 522.333 182.424 527.038 181.433 531.742C179.403 541.174 177.397 550.766 175.184 560.29L164.184 559.322C163.792 549.337 163.884 539.444 164.461 529.459C164.783 524.455 165.152 519.474 165.821 514.355C166.167 511.795 166.536 509.166 167.113 506.445C167.735 503.563 168.681 500.542 169.695 497.982C171.678 492.817 173.892 488.274 176.175 483.731C178.435 479.188 180.833 474.807 183.255 470.425C188.143 461.709 193.239 453.292 198.751 444.898L217.568 456.912Z" fill="#B55B52"/>
<path d="M208.367 432.492C195.984 435.697 173.915 480.203 173.915 480.203L200.227 497.244L223.955 474.207C223.955 474.207 226.331 463.185 222.433 449.187C218.536 435.213 208.367 432.492 208.367 432.492Z" fill="#12539D"/>
<path opacity="0.7" d="M208.367 432.492C195.984 435.697 173.915 480.203 173.915 480.203L200.227 497.244L223.955 474.207C223.955 474.207 226.331 463.185 222.433 449.187C218.536 435.213 208.367 432.492 208.367 432.492Z" fill="white"/>
<path d="M420.888 394.996L238.091 588.839L217.775 569.676L400.572 375.833C404.7 371.452 411.618 371.244 415.999 375.372L420.427 379.546C424.831 383.697 425.016 390.615 420.888 394.996Z" fill="#263238"/>
<path opacity="0.6" d="M420.888 394.996L238.091 588.839L217.775 569.676L400.572 375.833C404.7 371.452 411.618 371.244 415.999 375.372L420.427 379.546C424.831 383.697 425.016 390.615 420.888 394.996Z" fill="white"/>
<path opacity="0.2" d="M417.36 376.687L420.427 379.569C424.808 383.697 425.039 390.615 420.888 394.996L238.091 588.839L235.024 585.956L417.821 392.114C421.972 387.732 421.764 380.837 417.36 376.687Z" fill="black"/>
<path d="M359.041 451.747L392.916 483.708L397.321 479.027L392.939 474.899L399.903 467.497L397.344 465.076L407.813 453.984L410.372 456.405L416.898 449.464L421.303 453.615L425.869 448.772L423.286 446.351L429.858 439.387L424.716 434.544L428.982 430.001L436.707 437.265L444.547 428.964L410.672 397.002L359.041 451.747Z" fill="#263238"/>
<path opacity="0.6" d="M359.041 451.747L392.916 483.708L397.321 479.027L392.939 474.899L399.903 467.497L397.344 465.076L407.813 453.984L410.372 456.405L416.898 449.464L421.303 453.615L425.869 448.772L423.286 446.351L429.858 439.387L424.716 434.544L428.982 430.001L436.707 437.265L444.547 428.964L410.672 397.002L359.041 451.747Z" fill="white"/>
<g opacity="0.2">
<path opacity="0.6" d="M394.278 476.105L389.88 480.769L392.934 483.649L397.332 478.984L394.278 476.105Z" fill="black"/>
<path opacity="0.6" d="M410.372 456.405L407.813 453.984L397.344 465.076L399.926 467.497L392.939 474.899L389.872 472.017L396.859 464.614L394.3 462.193L404.746 451.078L407.329 453.522L413.854 446.581L416.921 449.464L410.372 456.405Z" fill="black"/>
<path opacity="0.6" d="M420.219 443.445L426.768 436.504L429.858 439.387L423.286 446.351L425.869 448.772L421.303 453.615L418.236 450.732L422.802 445.89L420.219 443.445Z" fill="black"/>
<path opacity="0.6" d="M425.912 427.145L421.624 431.691L424.677 434.571L428.965 430.024L425.912 427.145Z" fill="black"/>
<path opacity="0.6" d="M441.488 426.025L433.641 434.347L436.695 437.227L444.541 428.904L441.488 426.025Z" fill="black"/>
</g>
<path d="M419.596 399.954L363.561 459.38C362.638 460.371 361.093 460.417 360.102 459.472L339.763 440.286C338.771 439.364 338.725 437.819 339.67 436.827L395.706 377.401C396.629 376.41 398.174 376.364 399.165 377.309L419.504 396.495C420.473 397.417 420.519 398.962 419.596 399.954Z" fill="#263238"/>
<path d="M239.152 651.516C221.257 670.494 191.372 671.37 172.416 653.476L157.104 639.04C138.126 621.146 137.25 591.26 155.144 572.305C173.039 553.326 202.925 552.45 221.88 570.344L237.192 584.78C256.17 602.675 257.047 632.56 239.152 651.516Z" fill="#263238"/>
<path d="M221.557 634.912C212.656 644.344 197.782 644.782 188.328 635.881L173.731 622.114C164.299 613.213 163.861 598.339 172.762 588.885C181.663 579.453 196.537 579.015 205.992 587.916L220.589 601.683C230.02 610.607 230.458 625.481 221.557 634.912Z" fill="white"/>
<path opacity="0.5" d="M419.596 399.954L363.561 459.38C362.638 460.371 361.093 460.417 360.102 459.472L339.763 440.286C338.771 439.364 338.725 437.819 339.67 436.827L395.706 377.401C396.629 376.41 398.174 376.364 399.165 377.309L419.504 396.495C420.473 397.417 420.519 398.962 419.596 399.954Z" fill="white"/>
<g opacity="0.5">
<path d="M239.152 651.516C221.257 670.494 191.372 671.37 172.416 653.476L157.104 639.04C138.126 621.146 137.25 591.26 155.144 572.305C173.039 553.326 202.925 552.45 221.88 570.344L237.192 584.78C256.17 602.675 257.047 632.56 239.152 651.516Z" fill="white"/>
<path d="M221.557 634.912C212.656 644.344 197.782 644.782 188.328 635.881L173.731 622.114C164.299 613.213 163.861 598.339 172.762 588.885C181.663 579.453 196.537 579.015 205.992 587.916L220.589 601.683C230.02 610.607 230.458 625.481 221.557 634.912Z" fill="white"/>
</g>
<path opacity="0.2" d="M413.37 390.73L419.481 396.495C420.473 397.441 420.519 398.986 419.573 399.977L363.538 459.403C362.615 460.371 361.07 460.417 360.079 459.495L353.968 453.73C354.936 454.652 356.481 454.606 357.404 453.638L413.439 394.212C414.408 393.197 414.362 391.652 413.37 390.73Z" fill="black"/>
<g opacity="0.2">
<path d="M201.403 583.604L205.992 587.939C201.264 583.489 195.2 581.367 189.158 581.552C183.162 581.736 177.213 584.203 172.762 588.931C163.861 598.362 164.276 613.236 173.731 622.137L169.142 617.802C159.687 608.901 159.249 594.004 168.15 584.572C172.601 579.845 178.55 577.378 184.569 577.216C190.588 577.009 196.675 579.153 201.403 583.604Z" fill="black"/>
<path d="M232.626 580.445L237.215 584.78C256.17 602.651 257.046 632.56 239.152 651.516C221.28 670.471 191.372 671.347 172.416 653.476L167.827 649.14C186.783 667.012 216.668 666.136 234.563 647.18C252.458 628.225 251.581 598.339 232.626 580.445Z" fill="black"/>
</g>
<g opacity="0.2">
<path d="M201.403 583.604L205.992 587.939C201.264 583.489 195.2 581.367 189.158 581.552C183.162 581.736 177.213 584.203 172.762 588.931C163.861 598.362 164.276 613.236 173.731 622.137L169.142 617.802C159.687 608.901 159.249 594.004 168.15 584.572C172.601 579.845 178.55 577.378 184.569 577.216C190.588 577.009 196.675 579.153 201.403 583.604Z" fill="black"/>
<path d="M201.403 583.604L205.992 587.939C201.264 583.489 195.2 581.367 189.158 581.552C183.162 581.736 177.213 584.203 172.762 588.931C163.861 598.362 164.276 613.236 173.731 622.137L169.142 617.802C159.687 608.901 159.249 594.004 168.15 584.572C172.601 579.845 178.55 577.378 184.569 577.216C190.588 577.009 196.675 579.153 201.403 583.604Z" fill="black"/>
</g>
<path d="M166.421 585.656L183.37 581.413L181.479 569.03L160.817 573.204L166.421 585.656Z" fill="#B55B52"/>
<path d="M164.76 557.016L160.817 573.204L181.502 569.03C181.502 569.03 181.779 554.525 174.054 553.58L164.76 557.016Z" fill="#B55B52"/>
</svg>
