<svg width="72" height="72" viewBox="0 0 72 72" fill="none" xmlns="http://www.w3.org/2000/svg">
<circle cx="36" cy="36" r="36" fill="#FFF8EF"/>
<path d="M33.6063 38.725C33.6063 38.125 33.673 37.575 33.8063 37.075C33.9563 36.575 34.1813 36.125 34.4813 35.725C34.798 35.3083 35.2063 34.9417 35.7063 34.625C36.0063 34.425 36.348 34.2167 36.7313 34C37.1313 33.7833 37.5063 33.5333 37.8563 33.25C38.223 32.95 38.523 32.6 38.7563 32.2C38.9897 31.7833 39.1063 31.2917 39.1063 30.725C39.1063 30.0917 38.9563 29.5667 38.6563 29.15C38.373 28.7167 37.998 28.3917 37.5313 28.175C37.0647 27.9583 36.5647 27.85 36.0313 27.85C35.4813 27.85 34.9647 27.9583 34.4813 28.175C33.998 28.3917 33.573 28.6833 33.2063 29.05C32.8563 29.4 32.5647 29.7917 32.3313 30.225L30.8563 29.25C31.1563 28.5667 31.573 27.9833 32.1063 27.5C32.6563 27.0167 33.273 26.65 33.9563 26.4C34.6397 26.15 35.348 26.025 36.0813 26.025C36.698 26.025 37.298 26.125 37.8813 26.325C38.4813 26.5083 39.0147 26.8 39.4813 27.2C39.9647 27.6 40.348 28.1 40.6313 28.7C40.9147 29.3 41.0563 30.0083 41.0563 30.825C41.0563 31.4583 40.973 32 40.8063 32.45C40.6397 32.9 40.4063 33.2917 40.1063 33.625C39.823 33.9583 39.4897 34.25 39.1063 34.5C38.723 34.75 38.323 34.9917 37.9063 35.225C37.5063 35.4417 37.1147 35.6833 36.7313 35.95C36.3647 36.2167 36.0563 36.5667 35.8063 37C35.573 37.4167 35.4563 37.9917 35.4563 38.725H33.6063ZM33.6563 44V41.1H35.5063V44H33.6563Z" fill="#FF8211"/>
<path d="M35.7451 54.4902C25.4081 54.4902 17 46.0822 17 35.7451C17 25.4081 25.4081 17 35.7451 17C46.0822 17 54.4902 25.4081 54.4902 35.7451C54.4902 46.0771 46.0822 54.4902 35.7451 54.4902ZM35.7451 18.0128C25.9679 18.0128 18.0179 25.9679 18.0179 35.74C18.0179 45.5172 25.973 53.4672 35.7451 53.4672C45.5223 53.4672 53.4723 45.5121 53.4723 35.74C53.4723 25.9679 45.5223 18.0128 35.7451 18.0128Z" fill="#FF8211"/>
</svg>
